HIERARCHY
ROOT hip
{
	OFFSET 0.000000 0.000000 0.000000
	CHANNELS 6 Xposition Yposition Zposition Xrotation Zrotation Yrotation 
	JOINT abdomen
	{
		OFFSET 0.000000 3.422050 0.000000
		CHANNELS 3 Xrotation Zrotation Yrotation 
		JOINT chest
		{
			OFFSET 0.000000 8.486693 -0.684411
			CHANNELS 3 Xrotation Zrotation Yrotation 
			JOINT neck
			{
				OFFSET 0.000000 10.266162 -0.273764
				CHANNELS 3 Xrotation Zrotation Yrotation 
				JOINT head
				{
					OFFSET 0.000000 3.148285 0.000000
					CHANNELS 3 Xrotation Zrotation Yrotation 
					End Site
					{
						OFFSET 0.000000 3.148289 0.000000
					}
				}
			}
			JOINT lCollar
			{
				OFFSET 3.422053 6.707223 -0.821293
				CHANNELS 3 Yrotation Zrotation Xrotation 
				JOINT lShldr
				{
					OFFSET 3.285171 0.000000 0.000000
					CHANNELS 3 Zrotation Yrotation Xrotation 
					JOINT lForeArm
					{
						OFFSET 10.129278 0.000000 0.000000
						CHANNELS 3 Yrotation Zrotation Xrotation 
						JOINT lHand
						{
							OFFSET 8.486692 0.000000 0.000000
							CHANNELS 3 Zrotation Yrotation Xrotation 
							End Site
							{
								OFFSET 4.106464 0.000000 0.000000
							}
						}
					}
				}
			}
			JOINT rCollar
			{
				OFFSET -3.558935 6.707223 -0.821293
				CHANNELS 3 Yrotation Zrotation Xrotation 
				JOINT rShldr
				{
					OFFSET -3.148289 0.000000 0.000000
					CHANNELS 3 Zrotation Yrotation Xrotation 
					JOINT rForeArm
					{
						OFFSET -10.266159 0.000000 0.000000
						CHANNELS 3 Yrotation Zrotation Xrotation 
						JOINT rHand
						{
							OFFSET -8.349810 0.000000 0.000000
							CHANNELS 3 Zrotation Yrotation Xrotation 
							End Site
							{
								OFFSET -4.106464 0.000000 0.000000
							}
						}
					}
				}
			}
		}
	}
	JOINT lThigh
	{
		OFFSET 5.338403 -1.642589 1.368821
		CHANNELS 3 Xrotation Zrotation Yrotation 
		JOINT lShin
		{
			OFFSET -2.053232 -20.121670 0.000000
			CHANNELS 3 Xrotation Zrotation Yrotation 
			JOINT lFoot
			{
				OFFSET 0.000000 -19.300380 -1.231939
				CHANNELS 3 Xrotation Yrotation Zrotation 
				End Site
				{
					OFFSET 0.000000 -2.463878 4.653993
				}
			}
		}
	}
	JOINT rThigh
	{
		OFFSET -5.338403 -1.642589 1.368821
		CHANNELS 3 Xrotation Zrotation Yrotation 
		JOINT rShin
		{
			OFFSET 2.053232 -20.121670 0.000000
			CHANNELS 3 Xrotation Zrotation Yrotation 
			JOINT rFoot
			{
				OFFSET 0.000000 -19.300380 -1.231939
				CHANNELS 3 Xrotation Yrotation Zrotation 
				End Site
				{
					OFFSET 0.000000 -2.463878 4.653993
				}
			}
		}
	}
}
MOTION
Frames: 11
Frame Time: 0.033234
0.000000 43.528500 0.000000 0.000000 0.000000 0.000000 0.000000 0.000000 0.000000 0.000000 0.000000 0.000000 0.000000 0.000000 0.000000 0.000000 0.000000 0.000000 0.000000 0.000000 0.000000 0.000000 0.000000 0.000000 0.000000 0.000000 0.000000 0.000000 0.000000 0.000000 0.000000 0.000000 0.000000 0.000000 0.000000 0.000000 0.000000 0.000000 0.000000 0.000000 0.000000 0.000000 0.000000 0.000000 0.000000 0.000000 0.000000 0.000000 0.000000 0.000000 0.000000 0.000000 0.000000 0.000000 0.000000 0.000000 0.000000 0.000000 0.000000 0.000000 
0.928160 43.483444 0.000000 0.000000 0.000000 5.126729 -9.036914 3.981540 18.953430 -0.022735 -1.320184 0.000262 13.406429 1.111672 -0.695105 -0.002229 -0.743307 -2.082681 0.270927 -8.009708 -0.010830 -94.006371 18.990761 -0.000552 0.995304 1.991670 -0.012056 -33.008270 -8.009580 -36.009205 -0.022793 4.899193 0.000975 92.722794 -14.012316 -0.020672 -4.026904 -4.005510 -11.006256 41.151695 -19.015505 -13.482436 5.087394 -2.520705 -8.229792 0.795704 -0.631129 -0.016623 -2.868857 32.222652 -1.834897 -6.917462 -11.113898 8.774756 23.576420 -0.476485 0.306027 6.942010 24.985352 0.966677 
0.928160 43.483444 0.000000 0.218867 0.143262 5.129439 -9.034779 3.986014 18.985561 -0.022697 -1.311555 -0.000928 13.406097 1.132253 -0.675470 0.110429 -1.003286 -1.561724 0.270927 -8.009708 -0.010830 -93.975578 18.956650 0.009549 0.995304 1.991670 -0.012056 -33.008270 -8.009580 -36.009205 -0.022793 4.899193 0.000975 92.717316 -14.011551 -0.019467 -4.017368 -4.018756 -11.005665 41.033310 -19.017950 -13.447367 4.950467 -2.630469 -8.209472 0.794001 -0.632193 -0.016240 -2.866060 32.344955 -1.833899 -7.134515 -11.228552 8.835498 23.568161 -0.519736 0.292762 6.927021 24.983191 0.961340 
0.928160 43.483444 0.000000 0.437772 0.286531 5.132695 -9.032641 3.990489 19.017696 -0.022660 -1.302931 -0.002119 13.405770 1.152833 -0.655835 0.220798 -1.264449 -1.040897 0.270927 -8.009708 -0.010830 -93.944786 18.922533 0.019629 0.995304 1.991670 -0.012056 -33.008270 -8.009580 -36.009205 -0.022793 4.899193 0.000975 92.711868 -14.010789 -0.018263 -4.007832 -4.032001 -11.005072 40.914906 -19.020321 -13.412288 4.813477 -2.740191 -8.188885 0.792298 -0.633257 -0.015857 -2.863261 32.467285 -1.832907 -7.351809 -11.342995 8.896715 23.559902 -0.562990 0.279502 6.912030 24.981031 0.956002 
0.928160 43.483444 0.000000 0.656714 0.429804 5.136500 -9.030504 3.994962 19.049828 -0.022622 -1.294305 -0.003309 13.405449 1.173413 -0.636200 0.328863 -1.526760 -0.520205 0.270927 -8.009708 -0.010830 -93.914001 18.888409 0.029687 0.995304 1.991670 -0.012056 -33.008266 -8.009580 -36.009201 -0.022793 4.899193 0.000975 92.706398 -14.010023 -0.017059 -3.998296 -4.045246 -11.004477 40.796509 -19.022629 -13.377206 4.676425 -2.849874 -8.168033 0.790595 -0.634321 -0.015474 -2.860459 32.589619 -1.831920 -7.569345 -11.457225 8.958407 23.551661 -0.606247 0.266248 6.897042 24.978874 0.950665 
0.928160 43.483444 0.000000 0.875695 0.573077 5.140853 -9.028362 3.999434 19.081968 -0.022584 -1.285679 -0.004499 13.405135 1.193994 -0.616565 0.434611 -1.790184 0.000342 0.270927 -8.009708 -0.010830 -93.883232 18.854279 0.039724 0.995304 1.991670 -0.012056 -33.008270 -8.009580 -36.009205 -0.022793 4.899193 0.000975 92.700928 -14.009259 -0.015853 -3.988758 -4.058490 -11.003876 40.678097 -19.024864 -13.342113 4.539309 -2.959513 -8.146913 0.788892 -0.635385 -0.015090 -2.857657 32.711983 -1.830939 -7.787123 -11.571242 9.020577 23.543425 -0.649507 0.253000 6.882051 24.976715 0.945326 
0.928160 43.483444 0.000000 1.094714 0.716347 5.145755 -9.026218 4.003905 19.114101 -0.022547 -1.277052 -0.005689 13.404830 1.214574 -0.596929 0.538025 -2.054686 0.520736 0.270927 -8.009708 -0.010830 -93.852478 18.820143 0.049739 0.995304 1.991670 -0.012056 -33.008270 -8.009580 -36.009205 -0.022793 4.899193 0.000975 92.695473 -14.008498 -0.014649 -3.979222 -4.071735 -11.003277 40.559677 -19.027029 -13.307015 4.402130 -3.069109 -8.125529 0.787189 -0.636450 -0.014707 -2.854852 32.834354 -1.829964 -8.005139 -11.685035 9.083220 23.535202 -0.692769 0.239758 6.867060 24.974554 0.939987 
0.928160 43.483444 0.000000 1.313773 0.859609 5.151204 -9.024072 4.008375 19.146236 -0.022510 -1.268426 -0.006880 13.404529 1.235155 -0.577294 0.639092 -2.320231 1.040968 0.270927 -8.009709 -0.010830 -93.821724 18.786003 0.059735 0.995304 1.991670 -0.012056 -33.008270 -8.009580 -36.009205 -0.022793 4.899193 0.000975 92.690002 -14.007732 -0.013446 -3.969684 -4.084979 -11.002673 40.441250 -19.029125 -13.271911 4.264888 -3.178661 -8.103880 0.785486 -0.637514 -0.014324 -2.852046 32.956749 -1.828995 -8.223396 -11.798607 9.146337 23.526987 -0.736035 0.226522 6.852071 24.972401 0.934647 
0.928160 43.483444 0.000000 1.532871 1.002861 5.157203 -9.021923 4.012843 19.178371 -0.022473 -1.259800 -0.008070 13.404235 1.255736 -0.557658 0.737799 -2.586784 1.561031 0.270927 -8.009708 -0.010830 -93.791000 18.751862 0.069707 0.995304 1.991670 -0.012056 -33.008270 -8.009580 -36.009205 -0.022793 4.899193 0.000975 92.684662 -14.006998 -0.012242 -3.960147 -4.098225 -11.002069 40.322826 -19.031160 -13.236804 4.127582 -3.288166 -8.081961 0.783783 -0.638578 -0.013941 -2.849238 33.079166 -1.828031 -8.441895 -11.911956 9.209928 23.518776 -0.779303 0.213291 6.837080 24.970247 0.929307 
0.928160 43.483444 0.000000 1.752010 1.146099 5.163749 -9.019771 4.017310 19.210510 -0.022436 -1.251173 -0.009260 13.403949 1.276317 -0.538023 0.834132 -2.854307 2.080918 0.270927 -8.009708 -0.010830 -93.760284 18.717710 0.079658 0.995304 1.991670 -0.012056 -33.008266 -8.009580 -36.009201 -0.022793 4.899193 0.000975 92.679214 -14.006235 -0.011039 -3.950609 -4.111469 -11.001463 40.204388 -19.033121 -13.201689 3.990211 -3.397625 -8.059779 0.782080 -0.639642 -0.013558 -2.846428 33.201595 -1.827072 -8.660634 -12.025077 9.273995 23.510586 -0.822575 0.200066 6.822090 24.968094 0.923966 
0.928160 43.483444 0.000000 1.971189 1.289318 5.170844 -9.017615 4.021776 19.242645 -0.022400 -1.242547 -0.010450 13.403670 1.296899 -0.518387 0.928078 -3.122765 2.600622 0.270927 -8.009708 -0.010830 -93.729576 18.683554 0.089589 0.995304 1.991670 -0.012056 -33.008270 -8.009580 -36.009205 -0.022793 4.899193 0.000975 92.673759 -14.005474 -0.009835 -3.941070 -4.124713 -11.000851 40.085945 -19.035013 -13.166568 3.852775 -3.507034 -8.037326 0.780377 -0.640706 -0.013174 -2.843616 33.324047 -1.826120 -8.879611 -12.137966 9.338535 23.502396 -0.865849 0.186847 6.807101 24.965944 0.918625 
